<?xml version="1.0" encoding="UTF-8" standalone="no"?>
<!-- Created with Inkscape (http://www.inkscape.org/) -->

<svg
   width="79.110428mm"
   height="12.964951mm"
   viewBox="0 0 79.110428 12.964951"
   version="1.1"
   id="svg5"
   xmlns:inkscape="http://www.inkscape.org/namespaces/inkscape"
   xmlns:sodipodi="http://sodipodi.sourceforge.net/DTD/sodipodi-0.dtd"
   xmlns="http://www.w3.org/2000/svg"
   xmlns:svg="http://www.w3.org/2000/svg">
  <sodipodi:namedview
     id="namedview7"
     pagecolor="#505050"
     bordercolor="#eeeeee"
     borderopacity="1"
     inkscape:showpageshadow="0"
     inkscape:pageopacity="0"
     inkscape:pagecheckerboard="0"
     inkscape:deskcolor="#505050"
     inkscape:document-units="mm"
     showgrid="false" />
  <defs
     id="defs2" />
  <g
     inkscape:label="Layer 1"
     inkscape:groupmode="layer"
     id="layer1"
     transform="translate(-122.26924,-147.61766)">
    <g
       id="g374">
      <path
         d="m 138.42845,150.3028 v -2.43779 h -2.65051 v 12.47066 h 2.65051 v -7.14621 c -0.0555,-0.70522 0.16987,-1.40388 0.62728,-1.94495 0.25934,-0.23067 0.56298,-0.40653 0.89249,-0.51694 0.32954,-0.11044 0.67813,-0.15315 1.02471,-0.12552 h 2.81836 v -2.73704 h -2.91555 z"
         fill="#ffffff"
         id="path336"
         style="stroke-width:0.264583" />
      <path
         d="m 148.27947,147.86501 h -2.65051 v 12.47066 h 2.65051 z"
         fill="#ffffff"
         id="path338"
         style="stroke-width:0.264583" />
      <path
         d="m 159.46463,147.86501 -3.28666,10.06806 -3.39275,-10.06806 h -2.87126 l 4.53232,12.47066 h 3.38375 l 4.53231,-12.47066 z"
         fill="#ffffff"
         id="path340"
         style="stroke-width:0.264583" />
      <path
         d="m 173.86563,152.79343 c -0.0915,-1.03711 -0.45402,-2.03229 -1.05145,-2.88665 -0.53102,-0.74923 -1.24169,-1.3543 -2.06745,-1.76015 -0.79455,-0.36317 -1.66132,-0.54364 -2.53551,-0.52805 -3.79915,0 -6.18463,3.23868 -6.18463,7.11983 -0.0183,1.04664 0.25717,2.07756 0.79587,2.97643 0.53869,0.89884 1.31868,1.62983 2.25239,2.1104 0.96547,0.5094 2.04391,0.76962 3.13637,0.75686 0.90752,0.0109 1.80817,-0.15652 2.6506,-0.49283 0.78687,-0.31528 1.50204,-0.78521 2.10264,-1.38174 l -1.30757,-1.97136 c -0.41116,0.38754 -0.87894,0.71094 -1.38721,0.95928 -0.58764,0.27659 -1.23216,0.41222 -1.88171,0.39605 -0.61013,0.008 -1.21444,-0.12091 -1.76716,-0.37843 -0.51779,-0.25382 -0.96387,-0.63185 -1.29857,-1.10011 -0.34078,-0.49432 -0.56145,-1.06072 -0.64506,-1.65455 h 7.06808 z m -9.13553,0.0528 c 0.1188,-0.53226 0.34422,-1.03515 0.66278,-1.47854 0.28708,-0.41532 0.67231,-0.75385 1.1221,-0.98568 0.4482,-0.23789 0.94985,-0.35899 1.45759,-0.35203 0.58473,-0.0178 1.16443,0.10924 1.68751,0.36962 0.44583,0.23506 0.82312,0.58063 1.09564,1.0033 0.28416,0.44014 0.48181,0.92986 0.58314,1.44333 z"
         fill="#ffffff"
         id="path342"
         style="stroke-width:0.264583" />
      <path
         d="m 131.19258,148.60427 c -0.95819,-0.50182 -2.02751,-0.75601 -3.10992,-0.73927 h -5.81342 v 12.47067 h 7.56274 l 1.83769,-1.87454 c 0.47337,-0.46239 0.90776,-0.9628 1.29874,-1.49614 0.37129,-0.48178 0.66902,-1.01558 0.88349,-1.58414 0.2149,-0.58637 0.32261,-1.20635 0.31809,-1.83055 0.0127,-1.02351 -0.25623,-2.03094 -0.77748,-2.91306 -0.53049,-0.86724 -1.29202,-1.57097 -2.19993,-2.03297 z m 0.0707,7.51585 c -0.30239,0.58153 -0.75342,1.07333 -1.30759,1.42573 -0.49948,0.32451 -1.08231,0.49869 -1.67865,0.50163 h -3.7372 v -7.92068 h 3.29545 c 0.72022,-0.002 1.42893,0.17971 2.05856,0.52803 0.57367,0.32369 1.04966,0.79478 1.37827,1.36414 0.33181,0.61317 0.49919,1.3013 0.48591,1.99776 0.0131,0.73121 -0.15693,1.4541 -0.49475,2.10339 z"
         fill="#ffffff"
         id="path344"
         style="stroke-width:0.264583" />
      <path
         d="m 185.32447,150.01239 c -0.36909,-0.73289 -0.94271,-1.34407 -1.65205,-1.76015 -0.76465,-0.43048 -1.6309,-0.64927 -2.50905,-0.63366 -0.37147,-0.006 -0.74215,0.0321 -1.10437,0.11441 h -0.18574 l -2.15556,2.18259 V 147.865 h -2.65059 v 12.47067 h 2.65059 v -6.99659 c -0.0521,-0.87915 0.22834,-1.74582 0.78634,-2.429 0.26062,-0.29102 0.58288,-0.52086 0.94324,-0.67303 0.36063,-0.15217 0.75063,-0.22288 1.14168,-0.20706 0.50192,-0.0105 0.99589,0.12399 1.4224,0.38725 0.42148,0.2763 0.75062,0.67159 0.94536,1.1353 0.22886,0.55819 0.34025,1.15731 0.32702,1.76014 v 7.04061 h 2.65033 v -7.68307 c 0.0148,-0.92194 -0.1942,-1.83378 -0.6096,-2.65783 z"
         fill="#ffffff"
         id="path346"
         style="stroke-width:0.264583" />
      <path
         d="m 196.43724,147.92006 h -2.6506 v 12.47067 h 2.6506 z"
         fill="#ff4791"
         id="path348"
         style="stroke-width:0.264583" />
      <path
         d="m 201.37966,155.47382 v -2.63684 h -12.53543 v 2.63684 z"
         fill="#ff4791"
         id="path350"
         style="stroke-width:0.264583" />
    </g>
  </g>
</svg>
