<?xml version="1.0" encoding="UTF-8" standalone="no"?>
<!-- Created with Inkscape (http://www.inkscape.org/) -->

<svg
   width="36.877087mm"
   height="25.170685mm"
   viewBox="0 0 36.877087 25.170685"
   version="1.1"
   id="svg5"
   xmlns:inkscape="http://www.inkscape.org/namespaces/inkscape"
   xmlns:sodipodi="http://sodipodi.sourceforge.net/DTD/sodipodi-0.dtd"
   xmlns="http://www.w3.org/2000/svg"
   xmlns:svg="http://www.w3.org/2000/svg">
  <sodipodi:namedview
     id="namedview7"
     pagecolor="#505050"
     bordercolor="#eeeeee"
     borderopacity="1"
     inkscape:showpageshadow="0"
     inkscape:pageopacity="0"
     inkscape:pagecheckerboard="0"
     inkscape:deskcolor="#505050"
     inkscape:document-units="mm"
     showgrid="false" />
  <defs
     id="defs2">
    <clipPath
       id="clip0_6_164">
      <rect
         width="92"
         height="95"
         fill="#ffffff"
         id="rect676"
         x="0"
         y="0" />
    </clipPath>
  </defs>
  <g
     inkscape:label="Layer 1"
     inkscape:groupmode="layer"
     id="layer1"
     transform="translate(-18.336235,-219.10737)">
    <g
       id="g695"
       inkscape:export-filename="./LogoGold.svg"
       inkscape:export-xdpi="96"
       inkscape:export-ydpi="96">
      <path
         d="m 50.270915,231.80738 h -2.6506 v 12.47068 h 2.6506 z"
         fill="#ff4791"
         id="path668"
         style="stroke-width:0.264583" />
      <path
         d="m 55.213325,239.36112 v -2.63681 h -12.5354 v 2.63681 z"
         fill="#ff4791"
         id="path670"
         style="stroke-width:0.264583" />
      <g
         clip-path="url(#clip0_6_164)"
         id="g674"
         transform="matrix(0.26458333,0,0,0.26458333,18.336235,219.10738)">
        <path
           d="M 74.9735,80.8033 61.0685,95 H 0 V 0 H 45.4041 C 72.079,0 91.8865,18.4613 91.8865,43.6001 91.4354,57.722 85.356,71.0949 74.9735,80.8033 Z M 7.88896,7.35086 V 87.6491 H 57.8902 L 69.6385,75.5848 c 4.5006,-4.0931 8.1367,-9.0268 10.6987,-14.5164 2.5619,-5.4897 3.9988,-11.4267 4.2279,-17.4683 0,-21.1547 -16.459,-36.24924 -39.161,-36.24924 z M 64.0197,69.5245 54.8254,78.8955 H 15.8347 v -62.791 h 29.5694 c 3.9465,-0.1896 7.891,0.4138 11.595,1.7739 3.704,1.3601 7.0907,3.4485 9.9553,6.1392 2.8647,2.6906 5.1478,5.9275 6.7114,9.5151 1.5637,3.5877 2.3753,7.4515 2.386,11.358 -0.2211,4.6962 -1.4011,9.2996 -3.4688,13.5331 -2.0678,4.2335 -4.9807,8.0095 -8.5633,11.1007 z M 23.4966,23.4554 V 71.4885 H 51.8742 L 58.9118,64.306 C 64.5894,59.3374 68.0732,52.368 68.6169,44.8907 68.6077,41.9485 67.9892,39.0393 66.7994,36.3424 65.6096,33.6456 63.8739,31.2182 61.699,29.2099 59.5242,27.2016 56.9564,25.655 54.1539,24.6653 51.3514,23.6756 48.3736,23.2638 45.4041,23.4554 Z m 30.364,34.7903 -4.5404,4.5452 H 31.4991 V 32.2091 h 13.905 c 1.9109,-0.1304 3.8286,0.1278 5.6347,0.7587 1.8061,0.6308 3.4622,1.6209 4.8663,2.9092 1.404,1.2882 2.5261,2.8473 3.297,4.5809 0.771,1.7337 1.1744,3.6052 1.1853,5.499 -0.5047,4.7712 -2.8407,9.1694 -6.5268,12.2888 z M 38.3097,38.8305 v 17.2829 h 7.8889 l 2.6675,-2.6373 c 1.1851,-0.8448 2.1873,-1.9155 2.9476,-3.149 0.7602,-1.2335 1.2632,-2.6049 1.4793,-4.0335 -0.0043,-1.0369 -0.2254,-2.0617 -0.6495,-3.01 -0.4241,-0.9483 -1.042,-1.7996 -1.8148,-2.5005 -0.7729,-0.7009 -1.684,-1.2362 -2.6761,-1.5722 -0.9922,-0.336 -2.0439,-0.4655 -3.0891,-0.3804 z"
           fill="#fff16f"
           id="path672" />
      </g>
    </g>
  </g>
</svg>
