<?xml version="1.0" encoding="UTF-8" standalone="no"?>
<!-- Created with Inkscape (http://www.inkscape.org/) -->

<svg
   width="36.87709mm"
   height="25.170593mm"
   viewBox="0 0 36.87709 25.170593"
   version="1.1"
   id="svg5"
   xmlns:inkscape="http://www.inkscape.org/namespaces/inkscape"
   xmlns:sodipodi="http://sodipodi.sourceforge.net/DTD/sodipodi-0.dtd"
   xmlns="http://www.w3.org/2000/svg"
   xmlns:svg="http://www.w3.org/2000/svg">
  <sodipodi:namedview
     id="namedview7"
     pagecolor="#505050"
     bordercolor="#eeeeee"
     borderopacity="1"
     inkscape:showpageshadow="0"
     inkscape:pageopacity="0"
     inkscape:pagecheckerboard="0"
     inkscape:deskcolor="#505050"
     inkscape:document-units="mm"
     showgrid="false" />
  <defs
     id="defs2" />
  <g
     inkscape:label="Layer 1"
     inkscape:groupmode="layer"
     id="layer1"
     transform="translate(-106.06511,-227.52627)">
    <g
       id="g610"
       inkscape:export-filename="LogoPlatinum.svg"
       inkscape:export-xdpi="96"
       inkscape:export-ydpi="96">
      <path
         d="m 137.99979,240.22627 h -2.6506 v 12.4706 h 2.6506 z"
         fill="#ff4791"
         id="path591"
         style="stroke-width:0.264583" />
      <path
         d="m 142.9422,247.78012 v -2.63683 h -12.53542 v 2.63683 z"
         fill="#ff4791"
         id="path593"
         style="stroke-width:0.264583" />
      <path
         d="m 125.90185,248.9054 -3.67903,3.75629 h -16.15771 v -25.13542 h 12.01317 c 7.05773,0 12.2986,4.88455 12.2986,11.53586 -0.11959,3.73642 -1.728,7.27469 -4.47503,9.84327 z m -17.74944,-19.43421 v 21.24554 h 13.22948 l 3.10841,-3.19193 c 1.19078,-1.08294 2.15283,-2.38839 2.83069,-3.84096 0.67784,-1.45237 1.05802,-3.02321 1.11861,-4.62171 0,-5.59718 -4.35475,-9.59094 -10.36132,-9.59094 z m 14.85124,16.45023 -2.43265,2.47915 h -10.31629 v -16.61332 h 7.82357 c 1.04418,-0.0502 2.08782,0.10949 3.06784,0.46935 0.98002,0.35985 1.87608,0.91241 2.63401,1.62433 0.75795,0.71188 1.36202,1.56831 1.77572,2.51753 0.41373,0.94925 0.62847,1.97154 0.6313,3.00514 -0.0585,1.24254 -0.37071,2.46052 -0.91779,3.58069 -0.5471,1.11998 -1.31781,2.11904 -2.26571,2.93713 z m -10.72173,-12.18924 v 12.70862 h 7.50824 l 1.86203,-1.90024 c 1.5022,-1.31471 2.42395,-3.15859 2.56781,-5.13696 -0.002,-0.77846 -0.16608,-1.54818 -0.48088,-2.26174 -0.3148,-0.71353 -0.77404,-1.35578 -1.34948,-1.88714 -0.57542,-0.53136 -1.25482,-0.94057 -1.99631,-1.20242 -0.7415,-0.26186 -1.52937,-0.37082 -2.31505,-0.32012 z m 8.03381,9.20501 -1.20132,1.20253 h -4.71516 v -8.09146 h 3.67903 c 0.50559,-0.0345 1.01298,0.0338 1.49084,0.20074 0.47787,0.1669 0.91605,0.42886 1.28755,0.76972 0.37147,0.34084 0.66836,0.75335 0.87233,1.21203 0.20399,0.45871 0.31072,0.95388 0.31361,1.45495 -0.13354,1.26238 -0.7516,2.42607 -1.72688,3.25149 z m -4.11451,-5.13702 v 4.57277 h 2.08727 l 0.70577,-0.69779 c 0.31356,-0.22352 0.57873,-0.50681 0.77989,-0.83317 0.20114,-0.32636 0.33422,-0.68921 0.3914,-1.0672 -10e-4,-0.27434 -0.0596,-0.54549 -0.17185,-0.79639 -0.11221,-0.25091 -0.27569,-0.47615 -0.48016,-0.66159 -0.2045,-0.18545 -0.44556,-0.32708 -0.70806,-0.41598 -0.26252,-0.0889 -0.54078,-0.12316 -0.81732,-0.10065 z"
         fill="#56d59f"
         id="path595"
         style="stroke-width:0.264583" />
    </g>
  </g>
</svg>
