<?xml version="1.0" encoding="UTF-8" standalone="no"?>
<!-- Created with Inkscape (http://www.inkscape.org/) -->

<svg
   width="3.96875mm"
   height="2.7781219mm"
   viewBox="0 0 3.96875 2.7781219"
   version="1.1"
   id="svg5"
   xmlns:inkscape="http://www.inkscape.org/namespaces/inkscape"
   xmlns:sodipodi="http://sodipodi.sourceforge.net/DTD/sodipodi-0.dtd"
   xmlns="http://www.w3.org/2000/svg"
   xmlns:svg="http://www.w3.org/2000/svg">
  <sodipodi:namedview
     id="namedview7"
     pagecolor="#505050"
     bordercolor="#eeeeee"
     borderopacity="1"
     inkscape:showpageshadow="0"
     inkscape:pageopacity="0"
     inkscape:pagecheckerboard="0"
     inkscape:deskcolor="#505050"
     inkscape:document-units="mm"
     showgrid="false" />
  <defs
     id="defs2">
    <clipPath
       id="clip0_6_190">
      <rect
         width="15"
         height="12"
         fill="#ffffff"
         id="rect302"
         x="0"
         y="0" />
    </clipPath>
  </defs>
  <g
     inkscape:label="Layer 1"
     inkscape:groupmode="layer"
     id="layer1"
     transform="translate(-87.810816,-151.16621)">
    <g
       clip-path="url(#clip0_6_190)"
       id="g300"
       transform="matrix(0.26458333,0,0,0.26458333,87.810814,150.96777)">
      <path
         d="M 14.5584,1.27641 C 13.6493,0.895078 12.7395,0.75 11.8301,0.75 8.94328,0.749766 6.05672,2.21109 3.16992,2.21109 2.44594,2.21109 1.72242,2.11922 0.998437,1.88953 0.917109,1.86375 0.835547,1.85156 0.755859,1.85156 0.3525,1.85156 0,2.16375 0,2.59711 v 7.43579 c 0,0.296 0.169453,0.5766 0.441563,0.6905 C 1.3507,11.1049 2.26055,11.25 3.16992,11.25 c 2.8868,0 5.7736,-1.46133 8.66038,-1.46133 0.724,0 1.4475,0.09188 2.1715,0.32153 0.0813,0.0258 0.1629,0.038 0.2426,0.038 0.4033,0 0.7558,-0.31218 0.7558,-0.74554 V 1.96711 C 15,1.67086 14.8305,1.39055 14.5584,1.27641 Z M 1.125,3.09891 C 1.59656,3.21703 2.08875,3.27633 2.595,3.3082 2.45719,3.99703 1.85156,4.51617 1.125,4.51617 Z m 0,6.67968 V 8.65875 c 0.80555,0 1.45734,0.63914 1.4932,1.43905 C 2.09016,10.0554 1.59656,9.94992 1.125,9.77859 Z M 7.5,8.25 C 6.4643,8.25 5.625,7.24242 5.625,6 5.625,4.75734 6.46453,3.75 7.5,3.75 8.53547,3.75 9.375,4.75734 9.375,6 9.375,7.24289 8.53523,8.25 7.5,8.25 Z m 6.375,0.65109 C 13.4644,8.7982 13.038,8.74055 12.6019,8.70328 12.7395,8.09203 13.2464,7.62797 13.875,7.54828 Z m 0,-5.53382 c -0.724,-0.09165 -1.2858,-0.6961 -1.308,-1.44258 0.4579,0.05086 0.8927,0.14601 1.308,0.29672 z"
         fill="#ff4791"
         id="path298" />
    </g>
  </g>
</svg>
