<?xml version="1.0" encoding="UTF-8" standalone="no"?>
<!-- Created with Inkscape (http://www.inkscape.org/) -->

<svg
   width="3.1750031mm"
   height="4.2333679mm"
   viewBox="0 0 3.1750031 4.2333679"
   version="1.1"
   id="svg5"
   xmlns:inkscape="http://www.inkscape.org/namespaces/inkscape"
   xmlns:sodipodi="http://sodipodi.sourceforge.net/DTD/sodipodi-0.dtd"
   xmlns="http://www.w3.org/2000/svg"
   xmlns:svg="http://www.w3.org/2000/svg">
  <sodipodi:namedview
     id="namedview7"
     pagecolor="#505050"
     bordercolor="#eeeeee"
     borderopacity="1"
     inkscape:showpageshadow="0"
     inkscape:pageopacity="0"
     inkscape:pagecheckerboard="0"
     inkscape:deskcolor="#505050"
     inkscape:document-units="mm"
     showgrid="false" />
  <defs
     id="defs2" />
  <g
     inkscape:label="Layer 1"
     inkscape:groupmode="layer"
     id="layer1"
     transform="translate(-88.787012,-133.44506)">
    <path
       d="m 91.394217,134.80665 c 0.01233,0.0123 0.02209,0.0269 0.02876,0.043 0.0067,0.0161 0.01011,0.0333 0.01011,0.0507 0,0.0174 -0.0034,0.0346 -0.01011,0.0507 -0.0067,0.0161 -0.01643,0.0307 -0.02876,0.043 l -0.463021,0.46302 c -0.0241,0.0241 -0.05657,0.0379 -0.09062,0.0387 -0.03405,7.4e-4 -0.06707,-0.0117 -0.09221,-0.0347 l -0.198438,-0.18124 c -0.02458,-0.024 -0.03887,-0.0566 -0.03987,-0.0909 -9.79e-4,-0.0343 0.0114,-0.0677 0.03455,-0.093 0.02315,-0.0254 0.05527,-0.0407 0.08953,-0.0428 0.03426,-0.002 0.06802,0.009 0.09411,0.0315 l 0.10504,0.0958 0.373591,-0.37359 c 0.01228,-0.0123 0.02688,-0.0221 0.04297,-0.0288 0.01606,-0.007 0.03328,-0.0101 0.05069,-0.0101 0.01741,0 0.03463,0.003 0.05069,0.0101 0.01609,0.007 0.03069,0.0164 0.04297,0.0288 z m 0,1.51024 c 0.02484,-0.0248 0.03881,-0.0585 0.03884,-0.0936 2.6e-5,-0.0351 -0.01389,-0.0688 -0.03871,-0.0936 -0.02482,-0.0249 -0.05847,-0.0388 -0.09356,-0.0388 -0.03511,-3e-5 -0.06879,0.0139 -0.09364,0.0387 l -0.373856,0.3736 -0.10504,-0.0958 c -0.02609,-0.0223 -0.05985,-0.0336 -0.09411,-0.0315 -0.03426,0.002 -0.06638,0.0175 -0.08953,0.0428 -0.02315,0.0253 -0.03553,0.0587 -0.03455,0.093 0.001,0.0343 0.01529,0.0669 0.03987,0.0909 l 0.198438,0.18124 c 0.02511,0.0229 0.05808,0.0353 0.09208,0.0345 0.034,-7.4e-4 0.06641,-0.0145 0.09049,-0.0385 l 0.46302,-0.46302 z m -1.945746,-1.28429 c -0.03509,0 -0.06874,0.0139 -0.09354,0.0387 -0.02481,0.0248 -0.03875,0.0585 -0.03875,0.0935 0,0.0351 0.01394,0.0687 0.03875,0.0935 0.02481,0.0248 0.05846,0.0387 0.09354,0.0387 h 0.661458 c 0.03509,0 0.06874,-0.0139 0.09354,-0.0387 0.02481,-0.0248 0.03875,-0.0585 0.03875,-0.0935 0,-0.0351 -0.01394,-0.0687 -0.03875,-0.0935 -0.02481,-0.0248 -0.05846,-0.0387 -0.09354,-0.0387 z m -0.132292,1.45521 c 0,-0.0351 0.01394,-0.0687 0.03875,-0.0936 0.02481,-0.0248 0.05846,-0.0387 0.09354,-0.0387 h 0.661458 c 0.03509,0 0.06874,0.0139 0.09354,0.0387 0.02481,0.0248 0.03875,0.0585 0.03875,0.0936 0,0.0351 -0.01394,0.0687 -0.03875,0.0936 -0.02481,0.0248 -0.05846,0.0387 -0.09354,0.0387 h -0.661458 c -0.03509,0 -0.06874,-0.0139 -0.09354,-0.0387 -0.02481,-0.0248 -0.03875,-0.0585 -0.03875,-0.0936 z m 0.287073,-2.77812 c 0.02737,-0.0774 0.07807,-0.14443 0.145127,-0.19182 0.06705,-0.0474 0.14715,-0.0728 0.229258,-0.0728 h 0.79375 c 0.0821,-4e-5 0.162216,0.0254 0.229262,0.0728 0.06705,0.0474 0.117766,0.1144 0.145124,0.19182 h 0.419364 c 0.105252,0 0.206217,0.0418 0.280644,0.11624 0.07443,0.0744 0.116231,0.17537 0.116231,0.28063 v 3.175 c 0,0.10525 -0.0418,0.20622 -0.116231,0.28064 -0.07443,0.0744 -0.175392,0.11624 -0.280644,0.11624 h -2.38125 c -0.105256,0 -0.206205,-0.0418 -0.280633,-0.11624 -0.07443,-0.0744 -0.116242,-0.17539 -0.116242,-0.28064 v -3.175 c 0,-0.10526 0.04181,-0.20621 0.116242,-0.28063 0.07443,-0.0744 0.175377,-0.11624 0.280633,-0.11624 z m 0.374385,0 c -0.03509,0 -0.06874,0.0139 -0.09354,0.0387 -0.02481,0.0248 -0.03875,0.0585 -0.03875,0.0935 0,0.0351 0.01394,0.0687 0.03875,0.0935 0.02481,0.0248 0.05846,0.0387 0.09354,0.0387 h 0.79375 c 0.03508,0 0.06874,-0.0139 0.09356,-0.0387 0.02479,-0.0248 0.03874,-0.0585 0.03874,-0.0935 0,-0.0351 -0.01394,-0.0687 -0.03874,-0.0935 -0.02482,-0.0248 -0.05847,-0.0387 -0.09356,-0.0387 z m -0.374385,0.26458 h -0.419365 c -0.03509,0 -0.06874,0.0139 -0.09354,0.0388 -0.02481,0.0248 -0.03875,0.0584 -0.03875,0.0935 v 3.175 c 0,0.0351 0.01394,0.0687 0.03875,0.0936 0.02481,0.0248 0.05846,0.0387 0.09354,0.0387 h 2.38125 c 0.03508,0 0.06874,-0.0139 0.09356,-0.0387 0.02479,-0.0248 0.03874,-0.0585 0.03874,-0.0936 v -3.175 c 0,-0.0351 -0.01394,-0.0687 -0.03874,-0.0935 -0.02482,-0.0248 -0.05847,-0.0388 -0.09356,-0.0388 h -0.419364 c -0.02736,0.0774 -0.07808,0.14443 -0.145124,0.19181 -0.06704,0.0474 -0.147161,0.0728 -0.229262,0.0728 h -0.79375 c -0.08211,4e-5 -0.162205,-0.0254 -0.229258,-0.0728 -0.06705,-0.0474 -0.117759,-0.1144 -0.145127,-0.19181 z"
       fill="#ff4791"
       id="path132"
       style="stroke-width:0.264583" />
  </g>
</svg>
